<svg id="Layer_1" data-name="Layer 1" xmlns="http://www.w3.org/2000/svg" viewBox="0 0 801.07 398.56"><defs><style>.cls-1{fill:#004244;}.cls-2{fill:#009046;}.cls-3{fill:#ffd300;}</style></defs><path class="cls-1" d="M21.07,294.5V167.37H62.26q23.42,0,30.53,1.9a33.33,33.33,0,0,1,18.29,12.45q7.38,9.59,7.38,24.76,0,11.7-4.25,19.68a34.92,34.92,0,0,1-10.8,12.53,37.11,37.11,0,0,1-13.31,6q-9.19,1.82-26.63,1.82H46.74v48ZM46.74,188.87V225h14q15.17,0,20.29-2a16.88,16.88,0,0,0,8-6.24A17.07,17.07,0,0,0,92,206.82a16.39,16.39,0,0,0-4.08-11.44,17.74,17.74,0,0,0-10.32-5.64q-4.59-.87-18.47-.87Z"/><path class="cls-1" d="M200,294.5V280.71a35.49,35.49,0,0,1-13.22,11.62,37.1,37.1,0,0,1-17.3,4.25,33.78,33.78,0,0,1-16.65-4.08,24,24,0,0,1-10.67-11.44q-3.3-7.38-3.29-20.38V202.4H163.2v42.32q0,19.43,1.35,23.8a12.9,12.9,0,0,0,4.9,6.94,15,15,0,0,0,9,2.56,19.17,19.17,0,0,0,11.18-3.42,17.49,17.49,0,0,0,6.77-8.5q1.82-5.09,1.82-24.85V202.4h24.37v92.1Z"/><path class="cls-1" d="M271.17,294.5H246.8V202.4h22.64v13.1q5.81-9.28,10.45-12.23a19.16,19.16,0,0,1,10.53-3,30.91,30.91,0,0,1,16.05,4.6l-7.55,21.24q-6.15-4-11.45-4A13.52,13.52,0,0,0,278.8,225q-3.56,2.82-5.59,10.19t-2,30.87Z"/><path class="cls-1" d="M370.29,265.19l24.29,4.07q-4.69,13.37-14.79,20.34t-25.28,7q-24,0-35.56-15.7-9.1-12.57-9.1-31.74,0-22.89,12-35.86t30.26-13q20.55,0,32.44,13.57t11.36,41.58H334.82q.27,10.85,5.9,16.87a18.44,18.44,0,0,0,14,6,15,15,0,0,0,9.63-3.12Q368.3,272.12,370.29,265.19Zm1.39-24.63q-.26-10.59-5.46-16.09A16.77,16.77,0,0,0,353.56,219a17,17,0,0,0-13.19,5.81q-5.19,5.82-5.11,15.79Z"/><path class="cls-1" d="M577.68,300.57,605.52,304c.46,3.24,1.53,5.46,3.21,6.68q3.46,2.6,10.92,2.6,9.54,0,14.31-2.86a11.81,11.81,0,0,0,4.86-6.16q1.13-3,1.12-11.19V279.58Q629,294.51,612.37,294.5q-18.57,0-29.4-15.7-8.51-12.41-8.5-30.87,0-23.16,11.14-35.38a36,36,0,0,1,27.71-12.23q17.08,0,28.19,15V202.4h22.8v82.65q0,16.29-2.69,24.36a30.19,30.19,0,0,1-7.54,12.67,33.4,33.4,0,0,1-13,7.19q-8.11,2.61-20.51,2.6-23.42,0-33.22-8t-9.8-20.33C577.59,302.71,577.62,301.72,577.68,300.57Zm21.77-54q0,14.66,5.68,21.46a17.54,17.54,0,0,0,14,6.81,19.33,19.33,0,0,0,15.09-7q6.16-7,6.16-20.68,0-14.31-5.9-21.25A18.75,18.75,0,0,0,619.57,219a18,18,0,0,0-14.44,6.81Q599.45,232.58,599.45,246.54Z"/><path class="cls-1" d="M711.75,294.5H687.38V202.4H710v13.1q5.81-9.28,10.44-12.23a19.22,19.22,0,0,1,10.54-3,30.85,30.85,0,0,1,16,4.6l-7.54,21.24q-6.16-4-11.45-4a13.52,13.52,0,0,0-8.67,2.82q-3.55,2.82-5.59,10.19t-2,30.87Z"/><path class="cls-1" d="M757.54,189.91V167.37h24.37v22.54Zm0,104.59V202.4h24.37v92.1Z"/><path class="cls-2" d="M506.29,214.57l.08,0-.09,0Z"/><path class="cls-2" d="M435.59,88.66c10.35,9.4,24.43,11.09,31.87,20.64,3.33,4.27.66,16.27,0,21.64-.89,7.25-5.69,24.58-8.07,33L419.75,266.32A181.5,181.5,0,0,1,440,243.94a157.23,157.23,0,0,1,30.15-22.15l19.2-53.09,14.54,39.39a143.28,143.28,0,0,1,32.34-4.59l-29.08-73.08H476.43l3.09-6.42,2.64-2a58.66,58.66,0,0,0,23.12-.66A22.65,22.65,0,0,0,519,109.63c2.39-5.82,2.61-14.21,2-23.61-3.46,4-7.53,5.88-12.39,5-6.93-1.32-14.19-1-20.64,2.48s-7.73,9.56-7.27,15.36l4-3.47c3.38-2.07,8.08-4.35,10.24-1.49a2.76,2.76,0,0,1,0,2.15c-3.16,5.51-19.16,16.68-19.16,16.68.41-10.58-.07-19.9-2.81-24.77-2.84-5.06-10.24-20.81-10.24-20.81,4.11,1.59,7.84,3.61,10.41,7.6a65.91,65.91,0,0,1,5.12,10.73,21.22,21.22,0,0,0,3-3c4.31-7.37,3.3-17.75-3.14-24.77-4.55-5-16.69-11.46-21.8-15.86-4-3.4-14.69-14.86-14.69-14.86-5.33,7.17-9.1,16.07-11.4,26.59C428.39,74.39,429.46,83.1,435.59,88.66Z"/><path class="cls-2" d="M486.46,229.58h-16A154,154,0,0,0,445,248.88a176.28,176.28,0,0,0-32.34,40.8h32.88l11.71-32.45h6.67A153.57,153.57,0,0,1,486.46,229.58Z"/><path class="cls-2" d="M539.1,210.71a71.59,71.59,0,0,0-19.43,5,82.67,82.67,0,0,0-10.91,5.51l3.07,8.32H497a133.73,133.73,0,0,0-24.74,27.65h50.11l14.24,37.27h35.81Z"/><path class="cls-2" d="M406.81,293.18s45.13-96,149.28-85.43c0,0-63.63-16.3-107.23,85.43Z"/><path class="cls-3" d="M452.61,293.18s29.06-98.2,110.75-84.11c0,0-63,4.84-69.8,84.11Z"/></svg>